<?xml version="1.0" standalone="no"?>
<!DOCTYPE svg PUBLIC "-//W3C//DTD SVG 20010904//EN"
 "http://www.w3.org/TR/2001/REC-SVG-20010904/DTD/svg10.dtd">
<svg version="1.0" xmlns="http://www.w3.org/2000/svg"
 width="41.000000pt" height="40.000000pt" viewBox="0 0 41.000000 40.000000"
 preserveAspectRatio="xMidYMid meet">

<g transform="translate(0.000000,40.000000) scale(0.100000,-0.100000)"
fill="#000000" stroke="none">
<path d="M72 385 c-48 -21 -62 -64 -62 -185 0 -175 25 -200 200 -200 175 0
200 25 200 200 0 176 -25 200 -202 200 -66 -1 -115 -6 -136 -15z m145 -137
l-6 -23 16 23 c12 16 25 22 55 22 40 0 40 0 24 -22 -52 -73 -50 -64 -32 -108
9 -22 16 -43 16 -45 0 -3 -18 -5 -39 -5 -34 0 -41 4 -49 28 l-10 27 -1 -27
c-1 -25 -5 -28 -36 -28 -19 0 -35 3 -35 8 0 4 7 44 16 90 l17 82 35 0 c31 0
34 -2 29 -22z"/>
</g>
</svg>
